<svg xmlns="http://www.w3.org/2000/svg" viewBox="0 0 532 212" width="532" height="212">
  <g transform="translate(0,212) scale(0.1,-0.1)" fill="#686eaa">
    <path  d="M218 1952 l-28 -3 0 -886 0 -885 782 7 c431 3 784 8 787 10 2 3 -7 9
-20 14 -135 51 -233 102 -237 124 -2 9 8 41 22 72 14 30 26 60 26 65 0 5 13
37 29 72 16 35 37 86 47 113 10 28 20 55 24 60 4 6 14 31 24 57 21 57 34 59
96 17 111 -75 201 -113 314 -133 68 -12 85 -12 127 0 50 15 79 44 79 79 -1 45
-49 76 -150 100 -41 9 -86 21 -100 25 -14 5 -41 12 -60 16 -38 7 -37 7 -135
55 -199 97 -293 316 -241 559 18 82 21 91 59 169 39 79 151 196 230 241 32 18
60 36 63 41 3 5 -213 10 -528 11 -842 3 -1181 3 -1210 0z m821 -567 c69 -25
96 -41 130 -80 60 -68 74 -115 75 -239 1 -117 -7 -151 -51 -218 -49 -73 -166
-125 -298 -130 l-70 -3 -3 335 c-1 184 0 341 3 349 7 18 150 9 214 -14z"/>
    <path  d="M2740 1950 c0 -5 5 -10 11 -10 10 0 62 -22 147 -62 24 -11 46 -26 48
-33 3 -7 -4 -32 -14 -56 -11 -24 -53 -123 -92 -219 -40 -96 -76 -179 -80 -184
-5 -5 -23 1 -42 12 -119 76 -224 112 -327 112 -64 0 -79 -3 -108 -26 -39 -30
-43 -61 -10 -91 23 -22 110 -63 132 -63 7 0 35 -6 61 -14 27 -8 81 -22 119
-32 39 -9 77 -21 85 -25 8 -4 37 -18 65 -31 62 -29 153 -118 187 -183 46 -89
60 -162 55 -271 -6 -128 -18 -178 -64 -272 -48 -97 -167 -221 -262 -271 -46
-24 -60 -36 -50 -42 20 -13 1096 -12 1104 1 4 6 18 63 32 128 28 130 39 182
78 357 40 178 56 255 61 300 10 87 15 105 29 105 8 0 15 -1 16 -2 0 -2 7 -46
14 -98 8 -52 19 -115 24 -140 17 -82 39 -184 56 -255 9 -38 20 -88 25 -110 4
-22 14 -67 20 -100 7 -33 15 -67 18 -75 3 -8 10 -37 16 -65 l11 -50 281 -3
281 -2 17 62 c10 35 22 74 26 88 5 14 18 59 30 100 39 134 71 244 80 270 4 14
16 52 25 85 9 33 20 71 25 85 5 14 16 52 25 85 9 33 21 71 25 85 5 14 16 52
25 85 9 33 23 78 30 100 7 22 18 60 25 85 7 25 18 65 26 90 46 154 64 212 79
265 9 33 28 95 41 138 13 43 27 96 30 117 l7 40 -317 0 -316 0 -4 -22 c-19
-102 -52 -278 -77 -418 -11 -63 -27 -153 -35 -200 -23 -125 -31 -172 -48 -305
-28 -220 -38 -235 -54 -87 -13 107 -38 257 -46 270 -3 5 -10 37 -16 73 -26
143 -76 387 -115 560 -8 37 -15 78 -15 92 0 14 -7 28 -16 31 -22 9 -427 7
-440 -2 -6 -4 -14 -27 -17 -52 -3 -25 -14 -79 -23 -120 -9 -41 -19 -93 -24
-115 -4 -22 -22 -110 -40 -195 -18 -85 -34 -166 -37 -180 -3 -14 -14 -70 -25
-125 -19 -92 -40 -213 -54 -307 -4 -21 -9 -38 -13 -38 -4 0 -13 55 -19 123 -6
67 -18 160 -26 207 -8 47 -19 115 -25 151 -6 36 -13 72 -16 80 -3 8 -10 43
-15 79 -9 59 -25 152 -49 285 -5 28 -15 84 -22 125 -7 41 -18 78 -23 82 -17
12 -516 10 -516 -2z"/>
  </g>
  <g transform="translate(0,212) scale(0.1,-0.1)" fill="white">
    <path  d="M830 1061 l0 -342 68 7 c240 22 342 123 342 338 0 77 -14 135 -44
195 -41 77 -146 130 -278 138 l-88 6 0 -342z"/>
  </g>
</svg>