<svg id="Group_1347" data-name="Group 1347" xmlns="http://www.w3.org/2000/svg" xmlns:xlink="http://www.w3.org/1999/xlink" width="91.439" height="98" viewBox="0 0 91.439 98">
  <defs>
    <clipPath id="clip-path">
      <rect id="Rectangle_1139" data-name="Rectangle 1139" width="91.439" height="98" fill="none"/>
    </clipPath>
  </defs>
  <g id="Group_1346" data-name="Group 1346" clip-path="url(#clip-path)">
    <path id="Path_3467" data-name="Path 3467" d="M125.9,30.04l-6.876-.981c-.847-2.1-1.084-2.642-1.964-4.743l4.166-5.553a3.757,3.757,0,0,0-.339-4.877l-5.656-5.657a3.757,3.757,0,0,0-4.877-.337L104.8,12.057c-2.1-.881-2.642-1.118-4.741-1.965l-.982-6.876A3.756,3.756,0,0,0,95.351,0H87.392A3.721,3.721,0,0,0,83.7,3.217l-1.016,6.876c-2.1.847-2.642,1.083-4.741,1.965L72.388,7.892a3.719,3.719,0,0,0-4.877.337l-5.656,5.657a3.785,3.785,0,0,0-.948,3.691c9.991.271,17.848,2.879,21.4,6.774A16.167,16.167,0,1,1,94.606,53.579a24.666,24.666,0,0,1,16.731,14.563,3.8,3.8,0,0,0,3.9-.88l5.656-5.656a3.757,3.757,0,0,0,.339-4.877l-4.166-5.588c.881-2.067,1.118-2.608,1.964-4.708l6.876-1.017a3.721,3.721,0,0,0,3.217-3.691v-7.96A3.757,3.757,0,0,0,125.9,30.04" transform="translate(-37.679)" fill="#2a669f"/>
    <path id="Path_3468" data-name="Path 3468" d="M21.147,205.184c-8.061,0-16.428-1.734-21.147-5v7.449c0,3.061,8.035,7.3,21.147,7.3a50.565,50.565,0,0,0,8.8-.715,24.447,24.447,0,0,1-3.266-9.311c-1.836.178-3.7.28-5.535.28" transform="translate(0 -124.141)" fill="#2a669f"/>
    <path id="Path_3469" data-name="Path 3469" d="M21.147,179.2a50.255,50.255,0,0,0,5.331-.254A24.252,24.252,0,0,1,28.953,168.9a52.914,52.914,0,0,1-7.806.562c-8.061,0-16.428-1.735-21.147-5v7.448c0,3.062,8.035,7.3,21.147,7.3" transform="translate(0 -101.987)" fill="#2a669f"/>
    <path id="Path_3470" data-name="Path 3470" d="M21.147,143.48a50.538,50.538,0,0,0,10.535-1.046,24.323,24.323,0,0,1,10.612-7.754v-5.944c-4.719,3.265-13.086,5-21.147,5S4.719,132,0,128.736v7.448c0,3.061,8.035,7.3,21.147,7.3" transform="translate(0 -79.834)" fill="#2a669f"/>
    <path id="Path_3471" data-name="Path 3471" d="M21.167,107.731c13.112,0,21.147-4.235,21.147-7.3V92.986c-4.719,3.266-13.086,5-21.147,5S4.739,96.252.02,92.986v7.448c0,3.062,8.035,7.3,21.147,7.3" transform="translate(-0.012 -57.664)" fill="#2a669f"/>
    <path id="Path_3472" data-name="Path 3472" d="M21.167,72.255c13.112,0,21.147-4.234,21.147-7.3,0-3.036-8.035-7.3-21.147-7.3S.02,61.924.02,64.959c0,3.062,8.035,7.3,21.147,7.3" transform="translate(-0.012 -35.759)" fill="#2a669f"/>
    <path id="Path_3473" data-name="Path 3473" d="M100.2,150.5a20.415,20.415,0,1,0,20.415,20.415A20.439,20.439,0,0,0,100.2,150.5m1.843,31.117v2.712a.523.523,0,0,1-.524.524H98.88a.522.522,0,0,1-.523-.524v-2.643a5.515,5.515,0,0,1-5.141-4.931.52.52,0,0,1,.528-.554h2.672a.507.507,0,0,1,.5.386,1.835,1.835,0,0,0,1.791,1.445h2.338a2.744,2.744,0,0,0,2.778-2.36,2.64,2.64,0,0,0-2.623-2.913h-1.72a6.517,6.517,0,0,1-6.575-5.691,6.328,6.328,0,0,1,5.451-6.894V157.5a.524.524,0,0,1,.523-.524h2.64a.524.524,0,0,1,.524.524v2.645a5.515,5.515,0,0,1,5.141,4.931.522.522,0,0,1-.528.555h-2.672a.506.506,0,0,1-.5-.386,1.834,1.834,0,0,0-1.791-1.447H99.355a2.746,2.746,0,0,0-2.779,2.36,2.64,2.64,0,0,0,2.623,2.914h2a6.331,6.331,0,0,1,6.292,6.956,6.439,6.439,0,0,1-5.45,5.59" transform="translate(-49.477 -93.331)" fill="#dd5932"/>
  </g>
</svg>
