<svg id="Group_1345" data-name="Group 1345" xmlns="http://www.w3.org/2000/svg" xmlns:xlink="http://www.w3.org/1999/xlink" width="71.177" height="98" viewBox="0 0 71.177 98">
  <defs>
    <clipPath id="clip-path">
      <rect id="Rectangle_1138" data-name="Rectangle 1138" width="71.177" height="98" fill="none"/>
    </clipPath>
  </defs>
  <g id="Group_1344" data-name="Group 1344" clip-path="url(#clip-path)">
    <path id="Path_3464" data-name="Path 3464" d="M34.948,181.947l-9.624,22.142a1.948,1.948,0,0,1-3.455.224l-5.16-8.5L6.951,197.83a1.935,1.935,0,0,1-2.176-2.669L14.8,172.055a7.962,7.962,0,0,0,3.612,5.5,6.75,6.75,0,0,0,3.477.9,15.1,15.1,0,0,0,5.721-1.5c.561-.225,1.323-.539,1.862-.719.381.426.852,1.032,1.189,1.481a15.418,15.418,0,0,0,4.285,4.239" transform="translate(-2.874 -107.258)" fill="#dd5932"/>
    <path id="Path_3465" data-name="Path 3465" d="M131.808,197.866l-9.736-2.019-5.182,8.5a1.949,1.949,0,0,1-3.455-.225l-9.624-22.142a15.434,15.434,0,0,0,4.285-4.239c.359-.449.83-1.077,1.189-1.481.539.18,1.3.494,1.862.719a15.214,15.214,0,0,0,5.72,1.5,6.749,6.749,0,0,0,3.477-.9,8.043,8.043,0,0,0,3.612-5.474L133.984,195.2a1.935,1.935,0,0,1-2.176,2.669" transform="translate(-64.715 -107.293)" fill="#dd5932"/>
    <path id="Path_3466" data-name="Path 3466" d="M71.177,35.589c0-2.93-6-5.032-6.727-7.736-.748-2.8,3.379-7.614,1.963-10.062-1.437-2.483-7.686-1.309-9.7-3.325s-.84-8.265-3.324-9.7c-2.448-1.416-7.267,2.71-10.063,1.963C40.621,6.006,38.519,0,35.588,0s-5.033,6.006-7.736,6.728c-2.8.747-7.614-3.38-10.063-1.963-2.484,1.437-1.309,7.685-3.324,9.7s-8.264.841-9.7,3.325c-1.416,2.448,2.71,7.267,1.963,10.063C6,30.557,0,32.659,0,35.589s6,5.033,6.727,7.736c.747,2.8-3.379,7.615-1.963,10.063,1.437,2.484,7.686,1.309,9.7,3.324s.841,8.266,3.324,9.7c2.448,1.416,7.267-2.71,10.063-1.963,2.7.723,4.806,6.728,7.736,6.728s5.033-6,7.736-6.728c2.8-.747,7.615,3.379,10.063,1.964,2.483-1.437,1.308-7.687,3.324-9.7s8.265-.84,9.7-3.325c1.416-2.448-2.71-7.267-1.963-10.063.722-2.7,6.727-4.8,6.727-7.736M52.563,31.978l-6.942,6.766a1.405,1.405,0,0,0-.4,1.242l1.639,9.555a1.4,1.4,0,0,1-2.036,1.479L36.241,46.51a1.4,1.4,0,0,0-1.306,0l-8.58,4.511a1.4,1.4,0,0,1-2.036-1.479l1.639-9.555a1.4,1.4,0,0,0-.4-1.242l-6.942-6.766a1.4,1.4,0,0,1,.777-2.392l9.593-1.395a1.4,1.4,0,0,0,1.056-.768l4.29-8.693a1.4,1.4,0,0,1,2.516,0l4.29,8.693a1.4,1.4,0,0,0,1.056.768l9.593,1.395a1.4,1.4,0,0,1,.778,2.392" fill="#2a669f"/>
  </g>
</svg>
