<svg xmlns="http://www.w3.org/2000/svg" xmlns:xlink="http://www.w3.org/1999/xlink" width="105.564" height="95.245" viewBox="0 0 105.564 95.245">
  <defs>
    <clipPath id="clip-path">
      <rect id="Rectangle_1143" data-name="Rectangle 1143" width="105.564" height="95.245" fill="none"/>
    </clipPath>
  </defs>
  <g id="Group_1366" data-name="Group 1366" transform="translate(-1295.528 -2718.5)">
    <g id="Group_1355" data-name="Group 1355" transform="translate(1295.528 2718.5)">
      <g id="Group_1354" data-name="Group 1354" clip-path="url(#clip-path)">
        <path id="Path_3489" data-name="Path 3489" d="M153.721,51.841,148.5,51.31a.483.483,0,0,1-.406-.328,14.67,14.67,0,0,0-.719-1.718.481.481,0,0,1,.056-.519l3.322-4.074a1.641,1.641,0,0,0-.111-2.2l-3.189-3.19a1.639,1.639,0,0,0-2.2-.111L141.18,42.5a.481.481,0,0,1-.52.056,14.537,14.537,0,0,0-1.717-.718.48.48,0,0,1-.326-.4l-.532-5.225a1.641,1.641,0,0,0-1.632-1.474h-4.509a1.64,1.64,0,0,0-1.632,1.474l-.532,5.225a.481.481,0,0,1-.327.4,14.6,14.6,0,0,0-1.717.718.48.48,0,0,1-.519-.056l-4.075-3.32a1.639,1.639,0,0,0-2.2.111l-3.188,3.19a1.64,1.64,0,0,0-.112,2.2l3.322,4.074a.48.48,0,0,1,.056.519,14.6,14.6,0,0,0-.718,1.718.484.484,0,0,1-.406.328l-5.224.531a1.642,1.642,0,0,0-1.475,1.633v4.509a1.642,1.642,0,0,0,1.474,1.633l5.225.531a.482.482,0,0,1,.406.326,14.457,14.457,0,0,0,.718,1.718.479.479,0,0,1-.056.519l-3.322,4.076a1.64,1.64,0,0,0,.112,2.2l3.188,3.19a1.639,1.639,0,0,0,2.2.111l4.076-3.323a.479.479,0,0,1,.519-.056,14.227,14.227,0,0,0,1.717.718.483.483,0,0,1,.327.406l.532,5.225a1.64,1.64,0,0,0,1.632,1.474h4.509a1.641,1.641,0,0,0,1.632-1.474l.532-5.225a.482.482,0,0,1,.326-.406,14.231,14.231,0,0,0,1.717-.718.481.481,0,0,1,.52.056l4.074,3.323a1.639,1.639,0,0,0,2.2-.111l3.189-3.19a1.641,1.641,0,0,0,.111-2.2l-3.322-4.074a.484.484,0,0,1-.056-.521,14.526,14.526,0,0,0,.719-1.718.481.481,0,0,1,.406-.326l5.223-.531a1.642,1.642,0,0,0,1.475-1.633V53.474a1.641,1.641,0,0,0-1.475-1.633m-11.844,2.136-8.065,8.065a2.439,2.439,0,0,1-3.453,0l-4.2-4.2a2.445,2.445,0,0,1,0-3.453,2.439,2.439,0,0,1,3.453,0l2.475,2.476,6.339-6.337a2.44,2.44,0,0,1,3.451,0,2.447,2.447,0,0,1,0,3.455" transform="translate(-67.192 -20.615)" fill="#dd5932"/>
        <path id="Path_3490" data-name="Path 3490" d="M144.446,0H72.671A2.666,2.666,0,0,0,69.99,2.663V23.579a17.155,17.155,0,0,1,6.833,4.054V6.833h63.452V63.248H88.25a26.58,26.58,0,0,1,3.243,6.833h13.666V88.448h-6.4a3.4,3.4,0,0,0,0,6.8h19.6a3.4,3.4,0,0,0,0-6.8h-6.4V70.081h32.492a2.678,2.678,0,0,0,2.662-2.681V2.663A2.662,2.662,0,0,0,144.446,0" transform="translate(-41.544)" fill="#2a669f"/>
        <path id="Path_3491" data-name="Path 3491" d="M22.581,79.256a13.771,13.771,0,1,0,13.773-13.77,13.771,13.771,0,0,0-13.773,13.77" transform="translate(-13.404 -38.871)" fill="#2a669f"/>
        <path id="Path_3492" data-name="Path 3492" d="M34.758,142.168a20.976,20.976,0,0,1-23.616,0A21.76,21.76,0,0,0,0,161.162v2.847a5.565,5.565,0,0,0,5.565,5.565h34.77a5.565,5.565,0,0,0,5.564-5.565v-2.847a21.762,21.762,0,0,0-11.14-18.994" transform="translate(0 -84.388)" fill="#2a669f"/>
      </g>
    </g>
  </g>
</svg>
