<svg id="Group_1353" data-name="Group 1353" xmlns="http://www.w3.org/2000/svg" xmlns:xlink="http://www.w3.org/1999/xlink" width="114.471" height="114" viewBox="0 0 114.471 114">
  <defs>
    <clipPath id="clip-path">
      <rect id="Rectangle_1142" data-name="Rectangle 1142" width="114.471" height="114" fill="none"/>
    </clipPath>
  </defs>
  <g id="Group_1352" data-name="Group 1352" clip-path="url(#clip-path)">
    <path id="Path_3479" data-name="Path 3479" d="M188.675,171.754h-2.446a.3.3,0,0,1-.295-.338l.787-5.858a1.505,1.505,0,0,0-2.713-1.08l-8.327,11.543a1.505,1.505,0,0,0,1.221,2.386h2.446a.3.3,0,0,1,.295.338l-.787,5.857a1.505,1.505,0,0,0,2.712,1.082l8.327-11.544a1.5,1.5,0,0,0-1.22-2.386" transform="translate(-125.965 -117.673)" fill="#dd5932"/>
    <path id="Path_3480" data-name="Path 3480" d="M145.994,109.946l-6.211-.9c-.779-1.882-.989-2.385-1.768-4.269l3.753-5.028a3.37,3.37,0,0,0-.319-4.4l-5.1-5.1a3.372,3.372,0,0,0-4.4-.316l-5.03,3.755c-1.883-.783-2.387-.989-4.27-1.768l-.9-6.212a3.368,3.368,0,0,0-3.335-2.885h-7.209a3.37,3.37,0,0,0-3.336,2.885l-.9,6.212c-1.883.779-2.387.985-4.269,1.768L97.67,89.928a3.371,3.371,0,0,0-4.4.316l-5.1,5.1a3.37,3.37,0,0,0-.318,4.4l3.755,5.031c-.779,1.884-.989,2.388-1.768,4.269l-6.213.9a3.366,3.366,0,0,0-2.884,3.333v7.21a3.37,3.37,0,0,0,2.884,3.336l6.212.9c.78,1.885.988,2.386,1.769,4.273l-3.755,5.028a3.373,3.373,0,0,0,.318,4.4l5.1,5.1a3.369,3.369,0,0,0,4.4.321l5.031-3.755c1.882.78,2.386.99,4.269,1.768l.9,6.212a3.372,3.372,0,0,0,3.336,2.885h7.209a3.37,3.37,0,0,0,3.336-2.885l.9-6.212c1.883-.778,2.387-.988,4.27-1.768l5.03,3.755a3.37,3.37,0,0,0,4.4-.321l5.1-5.1a3.372,3.372,0,0,0,.319-4.4L138,128.984l1.763-4.256,6.228-.9a3.372,3.372,0,0,0,2.886-3.336v-7.21a3.367,3.367,0,0,0-2.886-3.333m-31.181,22.911a15.973,15.973,0,1,1,15.972-15.972,15.973,15.973,0,0,1-15.972,15.972" transform="translate(-57.99 -59.479)" fill="#2a669f"/>
    <path id="Path_3481" data-name="Path 3481" d="M60.619,66.755a5.937,5.937,0,0,0,1.244-.133l5.886,5.886,4.168-4.168L66.25,62.672a5.925,5.925,0,1,0-5.63,4.083" transform="translate(-39.28 -39.43)" fill="#2a669f"/>
    <path id="Path_3482" data-name="Path 3482" d="M185.38,11.063v8.894h5.894V11.063a5.926,5.926,0,1,0-5.894,0" transform="translate(-130.998)" fill="#2a669f"/>
    <path id="Path_3483" data-name="Path 3483" d="M290.249,68.566l4.167,4.169,6.161-6.161a5.934,5.934,0,1,0-4.251-4.085Z" transform="translate(-208.453 -39.431)" fill="#2a669f"/>
    <path id="Path_3484" data-name="Path 3484" d="M19.655,187H11.05a5.925,5.925,0,1,0,.027,5.894h8.578Z" transform="translate(0 -132.175)" fill="#2a669f"/>
    <path id="Path_3485" data-name="Path 3485" d="M300.228,295.839a5.915,5.915,0,0,0-1.567.216l-5.538-5.538-4.169,4.167,5.553,5.553a5.923,5.923,0,1,0,5.72-4.4" transform="translate(-207.522 -208.645)" fill="#2a669f"/>
    <path id="Path_3486" data-name="Path 3486" d="M349.51,182.675a5.921,5.921,0,0,0-5.327,3.342h-8.664v5.894h9.074a5.927,5.927,0,1,0,4.917-9.236" transform="translate(-240.965 -131.194)" fill="#2a669f"/>
    <path id="Path_3487" data-name="Path 3487" d="M72.282,295.486l-4.169-4.167-5.461,5.461a5.968,5.968,0,1,0,3.8,4.536Z" transform="translate(-39.28 -209.221)" fill="#2a669f"/>
    <path id="Path_3488" data-name="Path 3488" d="M191.275,344.672v-8.08H185.38v8.08a5.926,5.926,0,1,0,5.894,0" transform="translate(-130.998 -241.735)" fill="#2a669f"/>
  </g>
</svg>
